<svg width="188" height="45" viewBox="0 0 188 45" fill="none" xmlns="http://www.w3.org/2000/svg">
<g clip-path="url(#clip0_1_69)">
<path d="M56.7069 32.184H69.9244V28.2328H61.4047V13.3499H56.7069V32.184Z" fill="#2F234F"/>
<path d="M77.7553 29.5498C75.8708 29.5498 74.8888 27.9167 74.8888 25.4669C74.8888 23.0171 75.8708 21.3576 77.7553 21.3576C79.6397 21.3576 80.6482 23.0171 80.6482 25.4669C80.6482 27.9167 79.6397 29.5498 77.7553 29.5498ZM77.7818 32.6054C82.1611 32.6054 85.0275 29.5235 85.0275 25.4669C85.0275 21.4103 82.1611 18.3284 77.7818 18.3284C73.4291 18.3284 70.5095 21.4103 70.5095 25.4669C70.5095 29.5235 73.4291 32.6054 77.7818 32.6054Z" fill="#2F234F"/>
<path d="M92.6077 36.8465C94.6248 36.8465 96.4031 36.3986 97.5974 35.345C98.6856 34.3704 99.4022 32.8952 99.4022 30.8669V18.6972H95.2618V20.146H95.2087C94.4125 19.0133 93.1916 18.3021 91.3868 18.3021C88.016 18.3021 85.6804 21.0943 85.6804 25.0455C85.6804 29.1811 88.5203 31.4465 91.5726 31.4465C93.2181 31.4465 94.2532 30.7879 95.0495 29.8923H95.1556V31.2357C95.1556 32.8689 94.3859 33.8172 92.5546 33.8172C91.1214 33.8172 90.4047 33.2113 90.1659 32.5001H85.9724C86.397 35.3186 88.8654 36.8465 92.6077 36.8465ZM92.5811 28.2591C90.9621 28.2591 89.9005 26.9421 89.9005 24.9138C89.9005 22.8591 90.9621 21.5421 92.5811 21.5421C94.3859 21.5421 95.3414 23.0699 95.3414 24.8874C95.3414 26.784 94.4656 28.2591 92.5811 28.2591Z" fill="#2F234F"/>
<path d="M107.916 29.5498C106.031 29.5498 105.049 27.9167 105.049 25.4669C105.049 23.0171 106.031 21.3576 107.916 21.3576C109.8 21.3576 110.808 23.0171 110.808 25.4669C110.808 27.9167 109.8 29.5498 107.916 29.5498ZM107.942 32.6054C112.321 32.6054 115.188 29.5235 115.188 25.4669C115.188 21.4103 112.321 18.3284 107.942 18.3284C103.59 18.3284 100.67 21.4103 100.67 25.4669C100.67 29.5235 103.59 32.6054 107.942 32.6054Z" fill="#2F234F"/>
<path d="M116.452 32.184H120.778V18.6972H116.452V32.184ZM116.452 16.8269H120.778V13.3499H116.452V16.8269Z" fill="#2F234F"/>
<path d="M122.655 36.6357H126.981V30.7879H127.034C127.883 31.9206 129.131 32.6055 130.882 32.6055C134.439 32.6055 136.801 29.8133 136.801 25.4406C136.801 21.384 134.598 18.3021 130.988 18.3021C129.131 18.3021 127.804 19.1186 126.875 20.3304H126.795V18.6972H122.655V36.6357ZM129.768 29.2865C127.91 29.2865 126.848 27.785 126.848 25.5986C126.848 23.4123 127.804 21.7528 129.688 21.7528C131.546 21.7528 132.422 23.2806 132.422 25.5986C132.422 27.8904 131.413 29.2865 129.768 29.2865Z" fill="#2F234F"/>
<path d="M143.844 32.6055C147.401 32.6055 150.028 31.0777 150.028 28.1274C150.028 24.6767 147.215 24.0708 144.826 23.6757C143.101 23.3596 141.562 23.2279 141.562 22.2796C141.562 21.4367 142.385 21.0416 143.446 21.0416C144.641 21.0416 145.463 21.4104 145.623 22.6221H149.604C149.391 19.9616 147.321 18.3021 143.473 18.3021C140.261 18.3021 137.607 19.7772 137.607 22.6221C137.607 25.783 140.129 26.4152 142.491 26.8104C144.296 27.1265 145.941 27.2582 145.941 28.4699C145.941 29.3391 145.118 29.8133 143.818 29.8133C142.385 29.8133 141.482 29.1547 141.323 27.8113H137.236C137.368 30.7879 139.863 32.6055 143.844 32.6055Z" fill="#2F234F"/>
<path d="M155.905 32.5791C157.79 32.5791 158.984 31.8415 159.966 30.5245H160.046V32.184H164.186V18.6971H159.86V26.2308C159.86 27.8376 158.957 28.944 157.471 28.944C156.091 28.944 155.427 28.1274 155.427 26.6523V18.6971H151.128V27.5479C151.128 30.5508 152.773 32.5791 155.905 32.5791Z" fill="#2F234F"/>
<path d="M166.068 32.184H170.394V24.624C170.394 23.0172 171.191 21.8845 172.544 21.8845C173.845 21.8845 174.455 22.7274 174.455 24.1762V32.184H178.781V24.624C178.781 23.0172 179.551 21.8845 180.931 21.8845C182.232 21.8845 182.842 22.7274 182.842 24.1762V32.184H187.168V23.4123C187.168 20.383 185.629 18.3021 182.55 18.3021C180.798 18.3021 179.339 19.0396 178.277 20.6728H178.224C177.534 19.224 176.18 18.3021 174.402 18.3021C172.438 18.3021 171.137 19.224 170.288 20.6201H170.209V18.6972H166.068V32.184Z" fill="#2F234F"/>
<path fill-rule="evenodd" clip-rule="evenodd" d="M22.2298 44.2572C34.4451 44.2572 44.3474 34.4293 44.3474 22.306C44.3474 10.1827 34.4451 0.354797 22.2298 0.354797C10.0146 0.354797 0.112183 10.1827 0.112183 22.306C0.112183 34.4293 10.0146 44.2572 22.2298 44.2572ZM25.6436 17.3149C27.529 15.4437 27.529 12.4099 25.6436 10.5387C23.7582 8.66748 20.7015 8.66748 18.816 10.5387C16.9307 12.4099 16.9307 15.4437 18.816 17.3149L22.2298 20.703L25.6436 17.3149ZM27.2588 25.6941C29.1442 27.5654 32.201 27.5654 34.0864 25.6941C35.9717 23.8229 35.9717 20.7891 34.0864 18.9179C32.201 17.0468 29.1442 17.0468 27.2588 18.9179L23.845 22.3061L27.2588 25.6941ZM25.6436 34.0734C27.529 32.2021 27.529 29.1684 25.6436 27.2971L22.2298 23.9091L18.816 27.2971C16.9307 29.1684 16.9307 32.2021 18.816 34.0734C20.7015 35.9446 23.7582 35.9446 25.6436 34.0734ZM10.3733 25.6941C8.4879 23.8229 8.4879 20.7891 10.3733 18.9179C12.2587 17.0468 15.3155 17.0468 17.2009 18.9179L20.6146 22.3061L17.2009 25.6941C15.3155 27.5654 12.2587 27.5654 10.3733 25.6941Z" fill="#7F57F1"/>
</g>
<defs>
<clipPath id="clip0_1_69">
<rect width="188" height="45" fill="white"/>
</clipPath>
</defs>
</svg>
