<svg width="186" height="45" viewBox="0 0 186 45" fill="none" xmlns="http://www.w3.org/2000/svg">
<g clip-path="url(#clip0_1_53)">
<path d="M54.5573 31.777H67.7898V27.8258H59.2604V12.9429H54.5573V31.777Z" fill="#3C2B1F"/>
<path d="M75.6297 29.1429C73.7432 29.1429 72.76 27.5097 72.76 25.0599C72.76 22.6102 73.7432 20.9507 75.6297 20.9507C77.5163 20.9507 78.526 22.6102 78.526 25.0599C78.526 27.5097 77.5163 29.1429 75.6297 29.1429ZM75.6563 32.1985C80.0406 32.1985 82.9103 29.1165 82.9103 25.0599C82.9103 21.0033 80.0406 17.9214 75.6563 17.9214C71.2986 17.9214 68.3757 21.0033 68.3757 25.0599C68.3757 29.1165 71.2986 32.1985 75.6563 32.1985Z" fill="#3C2B1F"/>
<path d="M90.4991 36.4395C92.5185 36.4395 94.2988 35.9917 95.4945 34.938C96.584 33.9634 97.3014 32.4882 97.3014 30.46V18.2902H93.1563V19.739H93.1031C92.306 18.6063 91.0837 17.8951 89.2768 17.8951C85.9023 17.8951 83.564 20.6873 83.564 24.6385C83.564 28.7741 86.4071 31.0395 89.4628 31.0395C91.1103 31.0395 92.1465 30.3809 92.9437 29.4853H93.05V30.8287C93.05 32.4619 92.2794 33.4102 90.446 33.4102C89.0111 33.4102 88.2937 32.8043 88.0545 32.0931H83.8563C84.2814 34.9117 86.7525 36.4395 90.4991 36.4395ZM90.4725 27.8522C88.8517 27.8522 87.7888 26.5351 87.7888 24.5068C87.7888 22.4522 88.8517 21.1351 90.4725 21.1351C92.2794 21.1351 93.236 22.6629 93.236 24.4804C93.236 26.377 92.3591 27.8522 90.4725 27.8522Z" fill="#3C2B1F"/>
<path d="M105.825 29.1429C103.938 29.1429 102.955 27.5097 102.955 25.0599C102.955 22.6102 103.938 20.9507 105.825 20.9507C107.711 20.9507 108.721 22.6102 108.721 25.0599C108.721 27.5097 107.711 29.1429 105.825 29.1429ZM105.851 32.1985C110.235 32.1985 113.105 29.1165 113.105 25.0599C113.105 21.0033 110.235 17.9214 105.851 17.9214C101.493 17.9214 98.5706 21.0033 98.5706 25.0599C98.5706 29.1165 101.493 32.1985 105.851 32.1985Z" fill="#3C2B1F"/>
<path d="M114.37 31.777H118.701V18.2902H114.37V31.777ZM114.37 16.4199H118.701V12.9429H114.37V16.4199Z" fill="#3C2B1F"/>
<path d="M120.58 36.2287H124.911V30.3809H124.964C125.815 31.5136 127.064 32.1985 128.817 32.1985C132.378 32.1985 134.743 29.4063 134.743 25.0336C134.743 20.977 132.537 17.8951 128.924 17.8951C127.064 17.8951 125.735 18.7117 124.805 19.9234H124.725V18.2902H120.58V36.2287ZM127.701 28.8795C125.841 28.8795 124.778 27.378 124.778 25.1917C124.778 23.0053 125.735 21.3458 127.622 21.3458C129.482 21.3458 130.358 22.8736 130.358 25.1917C130.358 27.4834 129.349 28.8795 127.701 28.8795Z" fill="#3C2B1F"/>
<path d="M141.794 32.1985C145.355 32.1985 147.985 30.6707 147.985 27.7204C147.985 24.2697 145.169 23.6639 142.777 23.2687C141.05 22.9526 139.509 22.8209 139.509 21.8726C139.509 21.0297 140.333 20.6346 141.395 20.6346C142.591 20.6346 143.415 21.0034 143.574 22.2151H147.56C147.347 19.5546 145.275 17.8951 141.422 17.8951C138.207 17.8951 135.55 19.3702 135.55 22.2151C135.55 25.3761 138.074 26.0083 140.439 26.4034C142.246 26.7195 143.893 26.8512 143.893 28.0629C143.893 28.9322 143.069 29.4063 141.767 29.4063C140.333 29.4063 139.429 28.7478 139.27 27.4043H135.178C135.311 30.3809 137.808 32.1985 141.794 32.1985Z" fill="#3C2B1F"/>
<path d="M153.869 32.1722C155.755 32.1722 156.951 31.4346 157.934 30.1175H158.014V31.7771H162.159V18.2902H157.828V25.8239C157.828 27.4307 156.924 28.5371 155.436 28.5371C154.055 28.5371 153.39 27.7205 153.39 26.2453V18.2902H149.086V27.141C149.086 30.1439 150.733 32.1722 153.869 32.1722Z" fill="#3C2B1F"/>
<path d="M164.043 31.777H168.374V24.217C168.374 22.6102 169.171 21.4775 170.527 21.4775C171.829 21.4775 172.44 22.3204 172.44 23.7692V31.777H176.771V24.217C176.771 22.6102 177.541 21.4775 178.923 21.4775C180.225 21.4775 180.836 22.3204 180.836 23.7692V31.777H185.167V23.0053C185.167 19.9761 183.626 17.8951 180.544 17.8951C178.79 17.8951 177.329 18.6326 176.266 20.2658H176.213C175.522 18.817 174.167 17.8951 172.387 17.8951C170.42 17.8951 169.118 18.817 168.268 20.2131H168.188V18.2902H164.043V31.777Z" fill="#3C2B1F"/>
<path d="M28.1324 2.16974L23.778 1.01306L20.1085 14.5894L16.7956 2.33259L12.4411 3.48927L16.0205 16.7319L7.1051 7.89365L3.91742 11.0537L13.6965 20.7483L1.51821 17.5133L0.35144 21.83L13.6578 25.3646C13.5054 24.7132 13.4248 24.0345 13.4248 23.3371C13.4248 18.4007 17.4615 14.399 22.441 14.399C27.4204 14.399 31.4571 18.4007 31.4571 23.3371C31.4571 24.03 31.3775 24.7045 31.227 25.3521L43.32 28.5643L44.4867 24.2476L31.1275 20.699L43.3066 17.4638L42.1398 13.1471L28.7811 16.6955L37.6965 7.85736L34.5088 4.69728L24.8654 14.2573L28.1324 2.16974Z" fill="#F97316"/>
<path d="M31.2151 25.4024C30.8418 26.9671 30.0536 28.3727 28.9722 29.4989L37.733 38.1841L40.9207 35.024L31.2151 25.4024Z" fill="#F97316"/>
<path d="M28.8836 29.5898C27.7891 30.698 26.406 31.525 24.8549 31.9512L28.0428 43.7456L32.3972 42.5889L28.8836 29.5898Z" fill="#F97316"/>
<path d="M24.6922 31.9943C23.9726 32.1777 23.2183 32.2752 22.4409 32.2752C21.6082 32.2752 20.8017 32.1633 20.0361 31.9537L16.8453 43.7589L21.1997 44.9155L24.6922 31.9943Z" fill="#F97316"/>
<path d="M19.8821 31.9102C18.3547 31.4628 16.9961 30.6252 15.924 29.5139L7.1416 38.2203L10.3293 41.3804L19.8821 31.9102Z" fill="#F97316"/>
<path d="M15.8507 29.4369C14.7969 28.3185 14.0293 26.9316 13.664 25.3911L1.53149 28.6139L2.69826 32.9306L15.8507 29.4369Z" fill="#F97316"/>
</g>
<defs>
<clipPath id="clip0_1_53">
<rect width="186" height="45" fill="white"/>
</clipPath>
</defs>
</svg>
