<svg width="192" height="47" viewBox="0 0 192 47" fill="none" xmlns="http://www.w3.org/2000/svg">
<g clip-path="url(#clip0_1_80)">
<path d="M55.9107 33.0073H69.652V28.8804H60.7947V13.3361H55.9107V33.0073Z" fill="#2F234F"/>
<path d="M77.7932 30.2561C75.8341 30.2561 74.8132 28.5503 74.8132 25.9917C74.8132 23.4331 75.8341 21.6998 77.7932 21.6998C79.7523 21.6998 80.8008 23.4331 80.8008 25.9917C80.8008 28.5503 79.7523 30.2561 77.7932 30.2561ZM77.8208 33.4475C82.3736 33.4475 85.3536 30.2286 85.3536 25.9917C85.3536 21.7548 82.3736 18.5359 77.8208 18.5359C73.2956 18.5359 70.2604 21.7548 70.2604 25.9917C70.2604 30.2286 73.2956 33.4475 77.8208 33.4475Z" fill="#2F234F"/>
<path d="M93.2342 37.8769C95.3312 37.8769 97.1799 37.4092 98.4216 36.3088C99.5529 35.2908 100.298 33.7501 100.298 31.6317V18.921H95.9934V20.4342H95.9383C95.1105 19.2512 93.8412 18.5084 91.9649 18.5084C88.4606 18.5084 86.0324 21.4247 86.0324 25.5515C86.0324 29.8709 88.9849 32.2369 92.158 32.2369C93.8688 32.2369 94.9449 31.5491 95.7727 30.6137H95.8831V32.0168C95.8831 33.7226 95.0829 34.713 93.179 34.713C91.689 34.713 90.944 34.0803 90.6956 33.3374H86.336C86.7774 36.2812 89.3436 37.8769 93.2342 37.8769ZM93.2066 28.908C91.5234 28.908 90.4197 27.5324 90.4197 25.4139C90.4197 23.268 91.5234 21.8924 93.2066 21.8924C95.0829 21.8924 96.0762 23.4881 96.0762 25.3864C96.0762 27.3673 95.1657 28.908 93.2066 28.908Z" fill="#2F234F"/>
<path d="M109.149 30.2561C107.19 30.2561 106.169 28.5503 106.169 25.9917C106.169 23.4331 107.19 21.6998 109.149 21.6998C111.108 21.6998 112.156 23.4331 112.156 25.9917C112.156 28.5503 111.108 30.2561 109.149 30.2561ZM109.176 33.4475C113.729 33.4475 116.71 30.2286 116.71 25.9917C116.71 21.7548 113.729 18.5359 109.176 18.5359C104.651 18.5359 101.616 21.7548 101.616 25.9917C101.616 30.2286 104.651 33.4475 109.176 33.4475Z" fill="#2F234F"/>
<path d="M118.023 33.0073H122.52V18.921H118.023V33.0073ZM118.023 16.9677H122.52V13.3361H118.023V16.9677Z" fill="#2F234F"/>
<path d="M124.471 37.6569H128.969V31.5491H129.024C129.907 32.7322 131.204 33.4475 133.025 33.4475C136.722 33.4475 139.178 30.5312 139.178 25.9642C139.178 21.7273 136.888 18.5084 133.135 18.5084C131.204 18.5084 129.824 19.3612 128.858 20.6268H128.776V18.921H124.471V37.6569ZM131.866 29.9809C129.935 29.9809 128.831 28.4128 128.831 26.1292C128.831 23.8457 129.824 22.1125 131.783 22.1125C133.715 22.1125 134.625 23.7082 134.625 26.1292C134.625 28.5228 133.577 29.9809 131.866 29.9809Z" fill="#2F234F"/>
<path d="M146.502 33.4475C150.199 33.4475 152.931 31.8518 152.931 28.7704C152.931 25.1663 150.006 24.5335 147.523 24.1208C145.729 23.7907 144.129 23.6531 144.129 22.6627C144.129 21.7823 144.984 21.3696 146.088 21.3696C147.33 21.3696 148.185 21.7548 148.35 23.0204H152.489C152.269 20.2416 150.116 18.5084 146.115 18.5084C142.777 18.5084 140.017 20.049 140.017 23.0204C140.017 26.3218 142.639 26.9821 145.095 27.3948C146.971 27.7249 148.682 27.8625 148.682 29.1281C148.682 30.036 147.826 30.5312 146.474 30.5312C144.984 30.5312 144.046 29.8434 143.88 28.4403H139.631C139.769 31.5491 142.363 33.4475 146.502 33.4475Z" fill="#2F234F"/>
<path d="M159.039 33.42C160.998 33.42 162.24 32.6497 163.261 31.2741H163.344V33.0073H167.648V18.9211H163.151V26.7896C163.151 28.4678 162.212 29.6233 160.667 29.6233C159.232 29.6233 158.543 28.7704 158.543 27.2298V18.9211H154.073V28.1652C154.073 31.3016 155.783 33.42 159.039 33.42Z" fill="#2F234F"/>
<path d="M169.605 33.0073H174.103V25.1113C174.103 23.433 174.93 22.25 176.338 22.25C177.69 22.25 178.324 23.1304 178.324 24.6436V33.0073H182.822V25.1113C182.822 23.433 183.622 22.25 185.057 22.25C186.409 22.25 187.044 23.1304 187.044 24.6436V33.0073H191.541V23.8457C191.541 20.6818 189.941 18.5084 186.74 18.5084C184.919 18.5084 183.401 19.2787 182.298 20.9845H182.242C181.525 19.4713 180.118 18.5084 178.269 18.5084C176.227 18.5084 174.875 19.4713 173.992 20.9294H173.909V18.921H169.605V33.0073Z" fill="#2F234F"/>
<path fill-rule="evenodd" clip-rule="evenodd" d="M9.9497 4.46099C8.30487 5.60774 6.8175 6.96358 5.52633 8.48984C10.8027 8.00142 17.506 8.79895 25.2886 12.6789C33.5993 16.822 40.2915 16.9621 44.9489 16.0663C44.5263 14.7906 43.9942 13.5644 43.3641 12.3988C38.0326 12.9595 31.1976 12.2174 23.232 8.24634C18.1738 5.72461 13.715 4.68583 9.9497 4.46099ZM40.2496 7.97886C36.0393 3.28843 29.9207 0.336609 23.1106 0.336609C21.1107 0.336609 19.1702 0.591219 17.3204 1.06967C19.8258 1.75129 22.4873 2.74849 25.2886 4.14506C31.1206 7.05248 36.1556 7.98862 40.2496 7.97886ZM45.9447 20.5444C40.318 21.6522 32.5483 21.4247 23.232 16.7802C14.5223 12.438 7.59017 12.4927 2.91488 13.5287C2.67356 13.5821 2.43791 13.6383 2.20796 13.6967C1.59585 15.0241 1.10724 16.4199 0.756664 17.8693C1.1311 17.7696 1.51803 17.6748 1.91724 17.5863C7.58918 16.3295 15.6032 16.3841 25.2886 21.2127C33.9984 25.5548 40.9305 25.5002 45.6059 24.4642C45.766 24.4288 45.9239 24.3921 46.0791 24.3543C46.0961 23.9928 46.1046 23.6291 46.1046 23.2634C46.1046 22.3435 46.0503 21.4361 45.9447 20.5444ZM45.3283 29.1926C39.7563 30.1639 32.2128 29.7911 23.232 25.314C14.5223 20.9719 7.59017 21.0266 2.91488 22.0625C1.8771 22.2923 0.943532 22.5724 0.119992 22.868C0.117746 22.9995 0.116623 23.1314 0.116623 23.2634C0.116623 35.9256 10.4114 46.1902 23.1106 46.1902C33.7535 46.1902 42.7076 38.9808 45.3283 29.1926Z" fill="#7F57F1"/>
</g>
<defs>
<clipPath id="clip0_1_80">
<rect width="192" height="47" fill="white"/>
</clipPath>
</defs>
</svg>
